<svg width="46" height="16" viewBox="0 0 46 16" fill="none" xmlns="http://www.w3.org/2000/svg">
<path d="M0 7.293L11.088 1.511V3.975C11.088 4.16167 11.0413 4.33434 10.948 4.493C10.8547 4.64234 10.7007 4.773 10.486 4.885L5.404 7.489C5.18933 7.601 4.96067 7.699 4.718 7.783C4.48467 7.85767 4.23267 7.92767 3.962 7.993C4.23267 8.05833 4.48467 8.133 4.718 8.217C4.96067 8.29167 5.18933 8.385 5.404 8.497L10.486 11.115C10.7007 11.227 10.8547 11.3623 10.948 11.521C11.0413 11.6703 11.088 11.8383 11.088 12.025V14.489L0 8.693V7.293Z" fill="#2B3464"/>
<path d="M27.488 8.34C28.128 7.44 28.428 6.44 28.428 5.32C28.428 3.86 27.908 2.62 26.868 1.56C25.828 0.519999 24.568 0 23.108 0H16.088L17.468 2.38L17.768 2.68H23.108C23.828 2.68 24.448 2.94 24.968 3.46C25.508 3.98 25.768 4.6 25.768 5.32C25.768 6.06 25.508 6.7 24.968 7.22C24.448 7.74 23.828 8 23.108 8L20.728 7.98L25.368 16H28.428L25.148 10.26C26.088 9.88 26.868 9.24 27.488 8.34Z" fill="#2B3464"/>
<path d="M33.428 14.489V12.025C33.428 11.8383 33.4746 11.6703 33.568 11.521C33.6613 11.3623 33.8153 11.227 34.03 11.115L39.112 8.497C39.5226 8.29167 40.0033 8.12367 40.554 7.993C40.2833 7.92767 40.0266 7.85767 39.784 7.783C39.5506 7.699 39.3266 7.601 39.112 7.489L34.03 4.885C33.8153 4.773 33.6613 4.64234 33.568 4.493C33.4746 4.33434 33.428 4.16167 33.428 3.975V1.511L44.516 7.293V8.693L33.428 14.489Z" fill="#2B3464"/>
</svg>
