<?xml version="1.0" encoding="UTF-8" standalone="no"?>
<!DOCTYPE svg PUBLIC "-//W3C//DTD SVG 1.1//EN" "http://www.w3.org/Graphics/SVG/1.1/DTD/svg11.dtd">
<svg width="100%" height="100%" viewBox="0 0 48 48" version="1.1" xmlns="http://www.w3.org/2000/svg" xmlns:xlink="http://www.w3.org/1999/xlink" xml:space="preserve" xmlns:serif="http://www.serif.com/" style="fill-rule:evenodd;clip-rule:evenodd;stroke-linejoin:round;stroke-miterlimit:2;">
    <g transform="matrix(3.28823,0,0,3.28823,-57.9521,-39.504)">
        <path d="M19.617,15.381L19.617,23.25L22.688,23.25L22.688,21.328L25.43,21.328L26.912,23.25L30.182,23.25L28.465,21.041C28.98,20.801 29.396,20.437 29.707,19.963C30.023,19.483 30.182,18.944 30.182,18.354C30.205,16.728 28.828,15.364 27.205,15.381L19.617,15.381ZM26.432,17.683C26.807,17.683 27.105,17.981 27.105,18.354C27.105,18.535 27.041,18.693 26.906,18.827C26.777,18.956 26.619,19.02 26.432,19.02L22.494,19.02L22.494,17.683L26.432,17.683Z" style="fill-rule:nonzero;"/>
    </g>
    <g transform="matrix(3.28823,0,0,3.28823,-57.9521,-39.4841)">
        <path d="M30.375,23.25L26.912,23.25L22.688,18.439L22.688,23.25L19.617,23.25L19.617,15.182L23.842,15.182L27.299,19.547L27.299,15.182L30.375,15.182L30.375,23.25ZM30.182,23.057L30.182,15.375L27.492,15.375L27.492,20.074L23.754,15.375L19.811,15.375L19.811,23.057L22.5,23.057L22.5,17.93L27,23.057L30.182,23.057Z" style="fill:white;fill-rule:nonzero;"/>
    </g>
</svg>
